<mxfile host="app.diagrams.net" modified="2024-01-22T15:48:37.898Z" agent="Mozilla/5.0 (Windows NT 10.0; Win64; x64) AppleWebKit/537.36 (KHTML, like Gecko) Chrome/120.0.0.0 Safari/537.36" etag="fURicM2Py--OTBSQ08QX" version="22.1.21" type="github">
  <diagram name="Page-1" id="ZIix8ApLAzxXFZtdQDvz">
    <mxGraphModel dx="1050" dy="565" grid="1" gridSize="10" guides="1" tooltips="1" connect="1" arrows="1" fold="1" page="1" pageScale="1" pageWidth="850" pageHeight="1100" math="0" shadow="0">
      <root>
        <mxCell id="0" />
        <mxCell id="1" parent="0" />
        <mxCell id="Vhw_WrcrA6R06qI2dEpq-1" value="User" style="shape=umlActor;verticalLabelPosition=bottom;verticalAlign=top;html=1;" vertex="1" parent="1">
          <mxGeometry x="120" y="480" width="30" height="60" as="geometry" />
        </mxCell>
        <mxCell id="Vhw_WrcrA6R06qI2dEpq-2" value="ForexWar&amp;nbsp;" style="shape=umlFrame;whiteSpace=wrap;html=1;pointerEvents=0;" vertex="1" parent="1">
          <mxGeometry x="200" y="270" width="480" height="720" as="geometry" />
        </mxCell>
        <mxCell id="Vhw_WrcrA6R06qI2dEpq-3" value="Get Current Rates" style="ellipse;whiteSpace=wrap;html=1;" vertex="1" parent="1">
          <mxGeometry x="260" y="279" width="120" height="50" as="geometry" />
        </mxCell>
        <mxCell id="Vhw_WrcrA6R06qI2dEpq-4" value="" style="endArrow=none;html=1;rounded=0;entryX=0.01;entryY=0.372;entryDx=0;entryDy=0;entryPerimeter=0;" edge="1" parent="1" target="Vhw_WrcrA6R06qI2dEpq-3">
          <mxGeometry width="50" height="50" relative="1" as="geometry">
            <mxPoint x="150" y="500" as="sourcePoint" />
            <mxPoint x="220" y="380" as="targetPoint" />
          </mxGeometry>
        </mxCell>
        <mxCell id="Vhw_WrcrA6R06qI2dEpq-5" value="Get Time Series" style="ellipse;whiteSpace=wrap;html=1;" vertex="1" parent="1">
          <mxGeometry x="260" y="334" width="120" height="50" as="geometry" />
        </mxCell>
        <mxCell id="Vhw_WrcrA6R06qI2dEpq-6" value="" style="endArrow=none;html=1;rounded=0;exitX=1;exitY=0.3333333333333333;exitDx=0;exitDy=0;exitPerimeter=0;entryX=0;entryY=0.5;entryDx=0;entryDy=0;" edge="1" parent="1" source="Vhw_WrcrA6R06qI2dEpq-1" target="Vhw_WrcrA6R06qI2dEpq-5">
          <mxGeometry width="50" height="50" relative="1" as="geometry">
            <mxPoint x="200" y="490" as="sourcePoint" />
            <mxPoint x="250" y="440" as="targetPoint" />
          </mxGeometry>
        </mxCell>
        <mxCell id="Vhw_WrcrA6R06qI2dEpq-7" value="Create Account" style="ellipse;whiteSpace=wrap;html=1;" vertex="1" parent="1">
          <mxGeometry x="260" y="392" width="120" height="50" as="geometry" />
        </mxCell>
        <mxCell id="Vhw_WrcrA6R06qI2dEpq-8" value="" style="endArrow=none;html=1;rounded=0;entryX=0.05;entryY=0.756;entryDx=0;entryDy=0;entryPerimeter=0;" edge="1" parent="1" source="Vhw_WrcrA6R06qI2dEpq-1" target="Vhw_WrcrA6R06qI2dEpq-7">
          <mxGeometry width="50" height="50" relative="1" as="geometry">
            <mxPoint x="210" y="490" as="sourcePoint" />
            <mxPoint x="260" y="440" as="targetPoint" />
          </mxGeometry>
        </mxCell>
        <mxCell id="Vhw_WrcrA6R06qI2dEpq-10" value="View Profile Stats" style="ellipse;whiteSpace=wrap;html=1;" vertex="1" parent="1">
          <mxGeometry x="260" y="450" width="120" height="50" as="geometry" />
        </mxCell>
        <mxCell id="Vhw_WrcrA6R06qI2dEpq-11" value="" style="endArrow=none;html=1;rounded=0;" edge="1" parent="1" target="Vhw_WrcrA6R06qI2dEpq-10">
          <mxGeometry width="50" height="50" relative="1" as="geometry">
            <mxPoint x="160" y="500" as="sourcePoint" />
            <mxPoint x="240" y="470" as="targetPoint" />
          </mxGeometry>
        </mxCell>
        <mxCell id="Vhw_WrcrA6R06qI2dEpq-12" value="Change Credentials" style="ellipse;whiteSpace=wrap;html=1;" vertex="1" parent="1">
          <mxGeometry x="260" y="510" width="120" height="50" as="geometry" />
        </mxCell>
        <mxCell id="Vhw_WrcrA6R06qI2dEpq-13" value="" style="endArrow=none;html=1;rounded=0;exitX=1;exitY=0.3333333333333333;exitDx=0;exitDy=0;exitPerimeter=0;" edge="1" parent="1" source="Vhw_WrcrA6R06qI2dEpq-1" target="Vhw_WrcrA6R06qI2dEpq-12">
          <mxGeometry width="50" height="50" relative="1" as="geometry">
            <mxPoint x="170" y="560" as="sourcePoint" />
            <mxPoint x="220" y="510" as="targetPoint" />
          </mxGeometry>
        </mxCell>
        <mxCell id="Vhw_WrcrA6R06qI2dEpq-14" value="Delete Account" style="ellipse;whiteSpace=wrap;html=1;" vertex="1" parent="1">
          <mxGeometry x="260" y="570" width="120" height="50" as="geometry" />
        </mxCell>
        <mxCell id="Vhw_WrcrA6R06qI2dEpq-15" value="" style="endArrow=none;html=1;rounded=0;entryX=0;entryY=0.5;entryDx=0;entryDy=0;exitX=1;exitY=1;exitDx=0;exitDy=0;exitPerimeter=0;" edge="1" parent="1" source="Vhw_WrcrA6R06qI2dEpq-1" target="Vhw_WrcrA6R06qI2dEpq-14">
          <mxGeometry width="50" height="50" relative="1" as="geometry">
            <mxPoint x="150" y="500" as="sourcePoint" />
            <mxPoint x="230" y="550" as="targetPoint" />
          </mxGeometry>
        </mxCell>
        <mxCell id="Vhw_WrcrA6R06qI2dEpq-16" value="View Competing Users" style="ellipse;whiteSpace=wrap;html=1;" vertex="1" parent="1">
          <mxGeometry x="255" y="630" width="130" height="50" as="geometry" />
        </mxCell>
        <mxCell id="Vhw_WrcrA6R06qI2dEpq-17" value="View Lost Users" style="ellipse;whiteSpace=wrap;html=1;" vertex="1" parent="1">
          <mxGeometry x="260" y="690" width="130" height="50" as="geometry" />
        </mxCell>
        <mxCell id="Vhw_WrcrA6R06qI2dEpq-18" value="" style="endArrow=none;html=1;rounded=0;" edge="1" parent="1" target="Vhw_WrcrA6R06qI2dEpq-16">
          <mxGeometry width="50" height="50" relative="1" as="geometry">
            <mxPoint x="150" y="540" as="sourcePoint" />
            <mxPoint x="210" y="610" as="targetPoint" />
          </mxGeometry>
        </mxCell>
        <mxCell id="Vhw_WrcrA6R06qI2dEpq-19" value="" style="endArrow=none;html=1;rounded=0;entryX=0;entryY=0.5;entryDx=0;entryDy=0;exitX=1;exitY=1;exitDx=0;exitDy=0;exitPerimeter=0;" edge="1" parent="1" source="Vhw_WrcrA6R06qI2dEpq-1" target="Vhw_WrcrA6R06qI2dEpq-17">
          <mxGeometry width="50" height="50" relative="1" as="geometry">
            <mxPoint x="160" y="700" as="sourcePoint" />
            <mxPoint x="210" y="650" as="targetPoint" />
          </mxGeometry>
        </mxCell>
        <mxCell id="Vhw_WrcrA6R06qI2dEpq-20" value="View A user" style="ellipse;whiteSpace=wrap;html=1;" vertex="1" parent="1">
          <mxGeometry x="269" y="748" width="120" height="50" as="geometry" />
        </mxCell>
        <mxCell id="Vhw_WrcrA6R06qI2dEpq-21" value="" style="endArrow=none;html=1;rounded=0;entryX=0;entryY=0.5;entryDx=0;entryDy=0;" edge="1" parent="1" source="Vhw_WrcrA6R06qI2dEpq-1" target="Vhw_WrcrA6R06qI2dEpq-20">
          <mxGeometry width="50" height="50" relative="1" as="geometry">
            <mxPoint x="130" y="720" as="sourcePoint" />
            <mxPoint x="180" y="670" as="targetPoint" />
          </mxGeometry>
        </mxCell>
        <mxCell id="Vhw_WrcrA6R06qI2dEpq-22" value="Authorize" style="ellipse;whiteSpace=wrap;html=1;" vertex="1" parent="1">
          <mxGeometry x="545" y="582" width="120" height="50" as="geometry" />
        </mxCell>
        <mxCell id="Vhw_WrcrA6R06qI2dEpq-23" value="&amp;lt;&amp;lt;include&amp;gt;&amp;gt;" style="html=1;verticalAlign=bottom;labelBackgroundColor=none;endArrow=open;endFill=0;dashed=1;rounded=0;exitX=1;exitY=0.5;exitDx=0;exitDy=0;entryX=0.5;entryY=0;entryDx=0;entryDy=0;" edge="1" parent="1" source="Vhw_WrcrA6R06qI2dEpq-10" target="Vhw_WrcrA6R06qI2dEpq-22">
          <mxGeometry width="160" relative="1" as="geometry">
            <mxPoint x="380" y="510" as="sourcePoint" />
            <mxPoint x="540" y="510" as="targetPoint" />
          </mxGeometry>
        </mxCell>
        <mxCell id="Vhw_WrcrA6R06qI2dEpq-24" value="&amp;lt;&amp;lt;include&amp;gt;&amp;gt;" style="html=1;verticalAlign=bottom;labelBackgroundColor=none;endArrow=open;endFill=0;dashed=1;rounded=0;exitX=0.99;exitY=0.684;exitDx=0;exitDy=0;exitPerimeter=0;" edge="1" parent="1" source="Vhw_WrcrA6R06qI2dEpq-12" target="Vhw_WrcrA6R06qI2dEpq-22">
          <mxGeometry width="160" relative="1" as="geometry">
            <mxPoint x="370" y="560" as="sourcePoint" />
            <mxPoint x="440" y="550" as="targetPoint" />
          </mxGeometry>
        </mxCell>
        <mxCell id="Vhw_WrcrA6R06qI2dEpq-25" value="&amp;lt;&amp;lt;include&amp;gt;&amp;gt;" style="html=1;verticalAlign=bottom;labelBackgroundColor=none;endArrow=open;endFill=0;dashed=1;rounded=0;exitX=1;exitY=0.5;exitDx=0;exitDy=0;entryX=0.073;entryY=0.188;entryDx=0;entryDy=0;entryPerimeter=0;" edge="1" parent="1" source="Vhw_WrcrA6R06qI2dEpq-14" target="Vhw_WrcrA6R06qI2dEpq-22">
          <mxGeometry width="160" relative="1" as="geometry">
            <mxPoint x="390" y="580" as="sourcePoint" />
            <mxPoint x="481" y="584" as="targetPoint" />
          </mxGeometry>
        </mxCell>
        <mxCell id="Vhw_WrcrA6R06qI2dEpq-26" value="&amp;lt;&amp;lt;include&amp;gt;&amp;gt;" style="html=1;verticalAlign=bottom;labelBackgroundColor=none;endArrow=open;endFill=0;dashed=1;rounded=0;exitX=1;exitY=0.5;exitDx=0;exitDy=0;entryX=0;entryY=0.5;entryDx=0;entryDy=0;" edge="1" parent="1" source="Vhw_WrcrA6R06qI2dEpq-16" target="Vhw_WrcrA6R06qI2dEpq-22">
          <mxGeometry width="160" relative="1" as="geometry">
            <mxPoint x="410" y="640" as="sourcePoint" />
            <mxPoint x="501" y="644" as="targetPoint" />
          </mxGeometry>
        </mxCell>
        <mxCell id="Vhw_WrcrA6R06qI2dEpq-27" value="&amp;lt;&amp;lt;include&amp;gt;&amp;gt;" style="html=1;verticalAlign=bottom;labelBackgroundColor=none;endArrow=open;endFill=0;dashed=1;rounded=0;exitX=1;exitY=0.5;exitDx=0;exitDy=0;entryX=0.087;entryY=0.844;entryDx=0;entryDy=0;entryPerimeter=0;" edge="1" parent="1" source="Vhw_WrcrA6R06qI2dEpq-17" target="Vhw_WrcrA6R06qI2dEpq-22">
          <mxGeometry width="160" relative="1" as="geometry">
            <mxPoint x="425" y="713" as="sourcePoint" />
            <mxPoint x="516" y="717" as="targetPoint" />
          </mxGeometry>
        </mxCell>
        <mxCell id="Vhw_WrcrA6R06qI2dEpq-28" value="&amp;lt;&amp;lt;include&amp;gt;&amp;gt;" style="html=1;verticalAlign=bottom;labelBackgroundColor=none;endArrow=open;endFill=0;dashed=1;rounded=0;entryX=0.5;entryY=1;entryDx=0;entryDy=0;exitX=1.008;exitY=0.308;exitDx=0;exitDy=0;exitPerimeter=0;" edge="1" parent="1" source="Vhw_WrcrA6R06qI2dEpq-20" target="Vhw_WrcrA6R06qI2dEpq-22">
          <mxGeometry width="160" relative="1" as="geometry">
            <mxPoint x="425" y="760" as="sourcePoint" />
            <mxPoint x="516" y="764" as="targetPoint" />
          </mxGeometry>
        </mxCell>
        <mxCell id="Vhw_WrcrA6R06qI2dEpq-29" value="Trade" style="ellipse;whiteSpace=wrap;html=1;" vertex="1" parent="1">
          <mxGeometry x="260" y="811" width="120" height="50" as="geometry" />
        </mxCell>
        <mxCell id="Vhw_WrcrA6R06qI2dEpq-30" value="" style="endArrow=none;html=1;rounded=0;entryX=0;entryY=0.5;entryDx=0;entryDy=0;exitX=0;exitY=1;exitDx=0;exitDy=0;exitPerimeter=0;" edge="1" parent="1" source="Vhw_WrcrA6R06qI2dEpq-1" target="Vhw_WrcrA6R06qI2dEpq-29">
          <mxGeometry width="50" height="50" relative="1" as="geometry">
            <mxPoint x="120" y="590" as="sourcePoint" />
            <mxPoint x="239" y="824" as="targetPoint" />
          </mxGeometry>
        </mxCell>
        <mxCell id="Vhw_WrcrA6R06qI2dEpq-31" value="&amp;lt;&amp;lt;include&amp;gt;&amp;gt;" style="html=1;verticalAlign=bottom;labelBackgroundColor=none;endArrow=open;endFill=0;dashed=1;rounded=0;entryX=0.66;entryY=1.036;entryDx=0;entryDy=0;exitX=1;exitY=0;exitDx=0;exitDy=0;entryPerimeter=0;" edge="1" parent="1" source="Vhw_WrcrA6R06qI2dEpq-29" target="Vhw_WrcrA6R06qI2dEpq-22">
          <mxGeometry x="-0.0974" y="-7" width="160" relative="1" as="geometry">
            <mxPoint x="420" y="821" as="sourcePoint" />
            <mxPoint x="556" y="690" as="targetPoint" />
            <mxPoint as="offset" />
          </mxGeometry>
        </mxCell>
        <mxCell id="Vhw_WrcrA6R06qI2dEpq-32" value="Create Order" style="ellipse;whiteSpace=wrap;html=1;" vertex="1" parent="1">
          <mxGeometry x="230" y="910" width="120" height="39" as="geometry" />
        </mxCell>
        <mxCell id="Vhw_WrcrA6R06qI2dEpq-33" value="View Open Orders" style="ellipse;whiteSpace=wrap;html=1;" vertex="1" parent="1">
          <mxGeometry x="480" y="880" width="120" height="39" as="geometry" />
        </mxCell>
        <mxCell id="Vhw_WrcrA6R06qI2dEpq-34" value="Close Order" style="ellipse;whiteSpace=wrap;html=1;" vertex="1" parent="1">
          <mxGeometry x="360" y="910" width="120" height="39" as="geometry" />
        </mxCell>
        <mxCell id="Vhw_WrcrA6R06qI2dEpq-35" value="View Closed Orders" style="ellipse;whiteSpace=wrap;html=1;" vertex="1" parent="1">
          <mxGeometry x="538" y="840" width="120" height="39" as="geometry" />
        </mxCell>
        <mxCell id="Vhw_WrcrA6R06qI2dEpq-36" value="Change Order" style="ellipse;whiteSpace=wrap;html=1;" vertex="1" parent="1">
          <mxGeometry x="538" y="790" width="120" height="39" as="geometry" />
        </mxCell>
        <mxCell id="Vhw_WrcrA6R06qI2dEpq-37" value="&amp;lt;&amp;lt;extend&amp;gt;&amp;gt;" style="html=1;verticalAlign=bottom;labelBackgroundColor=none;endArrow=open;endFill=0;dashed=1;rounded=0;entryX=0.36;entryY=0.989;entryDx=0;entryDy=0;exitX=0.5;exitY=0;exitDx=0;exitDy=0;entryPerimeter=0;" edge="1" parent="1" source="Vhw_WrcrA6R06qI2dEpq-32" target="Vhw_WrcrA6R06qI2dEpq-29">
          <mxGeometry x="-0.7235" y="12" width="160" relative="1" as="geometry">
            <mxPoint x="225" y="908.89" as="sourcePoint" />
            <mxPoint x="385" y="908.89" as="targetPoint" />
            <mxPoint as="offset" />
          </mxGeometry>
        </mxCell>
        <mxCell id="Vhw_WrcrA6R06qI2dEpq-39" value="&amp;lt;&amp;lt;extend&amp;gt;&amp;gt;" style="html=1;verticalAlign=bottom;labelBackgroundColor=none;endArrow=open;endFill=0;dashed=1;rounded=0;exitX=0;exitY=0;exitDx=0;exitDy=0;" edge="1" parent="1" source="Vhw_WrcrA6R06qI2dEpq-34">
          <mxGeometry x="-0.3309" y="1" width="160" relative="1" as="geometry">
            <mxPoint x="385" y="900" as="sourcePoint" />
            <mxPoint x="320" y="860" as="targetPoint" />
            <mxPoint as="offset" />
          </mxGeometry>
        </mxCell>
        <mxCell id="Vhw_WrcrA6R06qI2dEpq-40" value="&amp;lt;&amp;lt;extend&amp;gt;&amp;gt;" style="html=1;verticalAlign=bottom;labelBackgroundColor=none;endArrow=open;endFill=0;dashed=1;rounded=0;exitX=0.023;exitY=0.274;exitDx=0;exitDy=0;exitPerimeter=0;entryX=0.716;entryY=0.953;entryDx=0;entryDy=0;entryPerimeter=0;" edge="1" parent="1" source="Vhw_WrcrA6R06qI2dEpq-33" target="Vhw_WrcrA6R06qI2dEpq-29">
          <mxGeometry width="160" relative="1" as="geometry">
            <mxPoint x="390" y="829" as="sourcePoint" />
            <mxPoint x="550" y="829" as="targetPoint" />
          </mxGeometry>
        </mxCell>
        <mxCell id="Vhw_WrcrA6R06qI2dEpq-41" value="&amp;lt;&amp;lt;extend&amp;gt;&amp;gt;" style="html=1;verticalAlign=bottom;labelBackgroundColor=none;endArrow=open;endFill=0;dashed=1;rounded=0;exitX=0;exitY=0.5;exitDx=0;exitDy=0;entryX=0.968;entryY=0.74;entryDx=0;entryDy=0;entryPerimeter=0;" edge="1" parent="1" source="Vhw_WrcrA6R06qI2dEpq-35" target="Vhw_WrcrA6R06qI2dEpq-29">
          <mxGeometry width="160" relative="1" as="geometry">
            <mxPoint x="538" y="855" as="sourcePoint" />
            <mxPoint x="418" y="817" as="targetPoint" />
          </mxGeometry>
        </mxCell>
        <mxCell id="Vhw_WrcrA6R06qI2dEpq-42" value="&amp;lt;&amp;lt;extend&amp;gt;&amp;gt;" style="html=1;verticalAlign=bottom;labelBackgroundColor=none;endArrow=open;endFill=0;dashed=1;rounded=0;exitX=0;exitY=0.5;exitDx=0;exitDy=0;entryX=0.99;entryY=0.296;entryDx=0;entryDy=0;entryPerimeter=0;" edge="1" parent="1" source="Vhw_WrcrA6R06qI2dEpq-36" target="Vhw_WrcrA6R06qI2dEpq-29">
          <mxGeometry width="160" relative="1" as="geometry">
            <mxPoint x="538" y="823" as="sourcePoint" />
            <mxPoint x="376" y="811" as="targetPoint" />
          </mxGeometry>
        </mxCell>
      </root>
    </mxGraphModel>
  </diagram>
</mxfile>
